<mxfile host="app.diagrams.net" modified="2022-05-16T17:29:11.049Z" agent="5.0 (Windows NT 10.0; Win64; x64) AppleWebKit/537.36 (KHTML, like Gecko) Chrome/101.0.4951.54 Safari/537.36" etag="In3TDmSX_kSH2Lob3OIL" version="18.0.6" type="github">
  <diagram id="pUFFLTCGcfrj1E4nk3-k" name="Page-1">
    <mxGraphModel dx="1422" dy="762" grid="1" gridSize="10" guides="1" tooltips="1" connect="1" arrows="1" fold="1" page="1" pageScale="1" pageWidth="827" pageHeight="1169" math="0" shadow="0">
      <root>
        <mxCell id="0" />
        <mxCell id="1" parent="0" />
        <mxCell id="9o-Jb9cLl40A2OQpJ5Hu-1" value="" style="whiteSpace=wrap;html=1;aspect=fixed;" vertex="1" parent="1">
          <mxGeometry x="240" y="165" width="420" height="420" as="geometry" />
        </mxCell>
        <mxCell id="9o-Jb9cLl40A2OQpJ5Hu-2" value="PE" style="whiteSpace=wrap;html=1;aspect=fixed;" vertex="1" parent="1">
          <mxGeometry x="510" y="310" width="120" height="120" as="geometry" />
        </mxCell>
        <mxCell id="9o-Jb9cLl40A2OQpJ5Hu-6" value="Serial&lt;br&gt;Data Loader" style="whiteSpace=wrap;html=1;aspect=fixed;" vertex="1" parent="1">
          <mxGeometry x="294" y="290" width="160" height="160" as="geometry" />
        </mxCell>
        <mxCell id="9o-Jb9cLl40A2OQpJ5Hu-11" value="" style="endArrow=classic;html=1;rounded=0;fontSize=12;entryX=0.35;entryY=-0.006;entryDx=0;entryDy=0;entryPerimeter=0;" edge="1" parent="1" target="9o-Jb9cLl40A2OQpJ5Hu-6">
          <mxGeometry width="50" height="50" relative="1" as="geometry">
            <mxPoint x="350" y="130" as="sourcePoint" />
            <mxPoint x="399" y="20" as="targetPoint" />
          </mxGeometry>
        </mxCell>
        <mxCell id="9o-Jb9cLl40A2OQpJ5Hu-16" value="" style="endArrow=classic;html=1;rounded=0;fontSize=12;entryX=0;entryY=0.825;entryDx=0;entryDy=0;entryPerimeter=0;" edge="1" parent="1">
          <mxGeometry width="50" height="50" relative="1" as="geometry">
            <mxPoint x="130" y="350" as="sourcePoint" />
            <mxPoint x="294" y="350" as="targetPoint" />
          </mxGeometry>
        </mxCell>
        <mxCell id="9o-Jb9cLl40A2OQpJ5Hu-17" value="" style="endArrow=classic;html=1;rounded=0;fontSize=12;entryX=0.35;entryY=-0.006;entryDx=0;entryDy=0;entryPerimeter=0;" edge="1" parent="1">
          <mxGeometry width="50" height="50" relative="1" as="geometry">
            <mxPoint x="413" y="130" as="sourcePoint" />
            <mxPoint x="413" y="289.03999999999996" as="targetPoint" />
          </mxGeometry>
        </mxCell>
        <mxCell id="9o-Jb9cLl40A2OQpJ5Hu-18" value="EN" style="text;html=1;align=center;verticalAlign=middle;resizable=0;points=[];autosize=1;strokeColor=none;fillColor=none;fontSize=12;" vertex="1" parent="1">
          <mxGeometry x="335" y="110" width="30" height="20" as="geometry" />
        </mxCell>
        <mxCell id="9o-Jb9cLl40A2OQpJ5Hu-19" value="feature_baseaddr" style="text;html=1;align=center;verticalAlign=middle;resizable=0;points=[];autosize=1;strokeColor=none;fillColor=none;fontSize=12;" vertex="1" parent="1">
          <mxGeometry x="370" y="110" width="110" height="20" as="geometry" />
        </mxCell>
        <mxCell id="9o-Jb9cLl40A2OQpJ5Hu-20" value="" style="endArrow=classic;html=1;rounded=0;fontSize=12;entryX=0;entryY=0.825;entryDx=0;entryDy=0;entryPerimeter=0;" edge="1" parent="1">
          <mxGeometry width="50" height="50" relative="1" as="geometry">
            <mxPoint x="130" y="309" as="sourcePoint" />
            <mxPoint x="294" y="309" as="targetPoint" />
          </mxGeometry>
        </mxCell>
        <mxCell id="9o-Jb9cLl40A2OQpJ5Hu-21" value="" style="endArrow=classic;html=1;rounded=0;fontSize=12;entryX=0;entryY=0.825;entryDx=0;entryDy=0;entryPerimeter=0;" edge="1" parent="1">
          <mxGeometry width="50" height="50" relative="1" as="geometry">
            <mxPoint x="130" y="329.5" as="sourcePoint" />
            <mxPoint x="294" y="329.5" as="targetPoint" />
          </mxGeometry>
        </mxCell>
        <mxCell id="9o-Jb9cLl40A2OQpJ5Hu-22" value="clk" style="text;html=1;align=center;verticalAlign=middle;resizable=0;points=[];autosize=1;strokeColor=none;fillColor=none;fontSize=12;" vertex="1" parent="1">
          <mxGeometry x="95" y="300" width="30" height="20" as="geometry" />
        </mxCell>
        <mxCell id="9o-Jb9cLl40A2OQpJ5Hu-23" value="rst" style="text;html=1;align=center;verticalAlign=middle;resizable=0;points=[];autosize=1;strokeColor=none;fillColor=none;fontSize=12;" vertex="1" parent="1">
          <mxGeometry x="95" y="320" width="30" height="20" as="geometry" />
        </mxCell>
        <mxCell id="9o-Jb9cLl40A2OQpJ5Hu-24" value="q [7:0]" style="text;html=1;align=center;verticalAlign=middle;resizable=0;points=[];autosize=1;strokeColor=none;fillColor=none;fontSize=12;" vertex="1" parent="1">
          <mxGeometry x="85" y="340" width="50" height="20" as="geometry" />
        </mxCell>
      </root>
    </mxGraphModel>
  </diagram>
</mxfile>
